<mxfile host="Electron" agent="Mozilla/5.0 (Macintosh; Intel Mac OS X 10_15_7) AppleWebKit/537.36 (KHTML, like Gecko) draw.io/24.7.17 Chrome/128.0.6613.36 Electron/32.0.1 Safari/537.36" version="24.7.17">
  <diagram name="Page-1" id="eyg9iPmWAnCPUha28cPX">
    <mxGraphModel dx="1194" dy="657" grid="1" gridSize="10" guides="1" tooltips="1" connect="1" arrows="1" fold="1" page="1" pageScale="1" pageWidth="827" pageHeight="1169" math="0" shadow="0">
      <root>
        <mxCell id="0" />
        <mxCell id="1" parent="0" />
        <mxCell id="_l82SM2_WNKJ50-7Za2x-104" value="Client" style="swimlane;fontStyle=1;align=center;verticalAlign=top;childLayout=stackLayout;horizontal=1;startSize=24.6;horizontalStack=0;resizeParent=1;resizeParentMax=0;resizeLast=0;collapsible=0;marginBottom=0;" vertex="1" parent="1">
          <mxGeometry x="150" y="10" width="167" height="186.6" as="geometry" />
        </mxCell>
        <mxCell id="_l82SM2_WNKJ50-7Za2x-105" value="+string client_id" style="text;strokeColor=none;fillColor=none;align=left;verticalAlign=top;spacingLeft=4;spacingRight=4;overflow=hidden;rotatable=0;points=[[0,0.5],[1,0.5]];portConstraint=eastwest;" vertex="1" parent="_l82SM2_WNKJ50-7Za2x-104">
          <mxGeometry y="24.6" width="167" height="25" as="geometry" />
        </mxCell>
        <mxCell id="_l82SM2_WNKJ50-7Za2x-106" value="+string first_name" style="text;strokeColor=none;fillColor=none;align=left;verticalAlign=top;spacingLeft=4;spacingRight=4;overflow=hidden;rotatable=0;points=[[0,0.5],[1,0.5]];portConstraint=eastwest;" vertex="1" parent="_l82SM2_WNKJ50-7Za2x-104">
          <mxGeometry y="49.6" width="167" height="25" as="geometry" />
        </mxCell>
        <mxCell id="_l82SM2_WNKJ50-7Za2x-107" value="+string last_name" style="text;strokeColor=none;fillColor=none;align=left;verticalAlign=top;spacingLeft=4;spacingRight=4;overflow=hidden;rotatable=0;points=[[0,0.5],[1,0.5]];portConstraint=eastwest;" vertex="1" parent="_l82SM2_WNKJ50-7Za2x-104">
          <mxGeometry y="74.6" width="167" height="25" as="geometry" />
        </mxCell>
        <mxCell id="_l82SM2_WNKJ50-7Za2x-108" value="+string email" style="text;strokeColor=none;fillColor=none;align=left;verticalAlign=top;spacingLeft=4;spacingRight=4;overflow=hidden;rotatable=0;points=[[0,0.5],[1,0.5]];portConstraint=eastwest;" vertex="1" parent="_l82SM2_WNKJ50-7Za2x-104">
          <mxGeometry y="99.6" width="167" height="25" as="geometry" />
        </mxCell>
        <mxCell id="_l82SM2_WNKJ50-7Za2x-109" value="+string phonenumber" style="text;strokeColor=none;fillColor=none;align=left;verticalAlign=top;spacingLeft=4;spacingRight=4;overflow=hidden;rotatable=0;points=[[0,0.5],[1,0.5]];portConstraint=eastwest;" vertex="1" parent="_l82SM2_WNKJ50-7Za2x-104">
          <mxGeometry y="124.6" width="167" height="25" as="geometry" />
        </mxCell>
        <mxCell id="_l82SM2_WNKJ50-7Za2x-110" value="+string address" style="text;strokeColor=none;fillColor=none;align=left;verticalAlign=top;spacingLeft=4;spacingRight=4;overflow=hidden;rotatable=0;points=[[0,0.5],[1,0.5]];portConstraint=eastwest;" vertex="1" parent="_l82SM2_WNKJ50-7Za2x-104">
          <mxGeometry y="149.6" width="167" height="25" as="geometry" />
        </mxCell>
        <mxCell id="_l82SM2_WNKJ50-7Za2x-111" style="line;strokeWidth=1;fillColor=none;align=left;verticalAlign=middle;spacingTop=-1;spacingLeft=3;spacingRight=3;rotatable=0;labelPosition=right;points=[];portConstraint=eastwest;strokeColor=inherit;" vertex="1" parent="_l82SM2_WNKJ50-7Za2x-104">
          <mxGeometry y="174.6" width="167" height="12" as="geometry" />
        </mxCell>
        <mxCell id="_l82SM2_WNKJ50-7Za2x-112" value="Car" style="swimlane;fontStyle=1;align=center;verticalAlign=top;childLayout=stackLayout;horizontal=1;startSize=24.6;horizontalStack=0;resizeParent=1;resizeParentMax=0;resizeLast=0;collapsible=0;marginBottom=0;" vertex="1" parent="1">
          <mxGeometry x="223" y="271" width="137" height="186.6" as="geometry" />
        </mxCell>
        <mxCell id="_l82SM2_WNKJ50-7Za2x-113" value="+string car_plate" style="text;strokeColor=none;fillColor=none;align=left;verticalAlign=top;spacingLeft=4;spacingRight=4;overflow=hidden;rotatable=0;points=[[0,0.5],[1,0.5]];portConstraint=eastwest;" vertex="1" parent="_l82SM2_WNKJ50-7Za2x-112">
          <mxGeometry y="24.6" width="137" height="25" as="geometry" />
        </mxCell>
        <mxCell id="_l82SM2_WNKJ50-7Za2x-114" value="+string client_id" style="text;strokeColor=none;fillColor=none;align=left;verticalAlign=top;spacingLeft=4;spacingRight=4;overflow=hidden;rotatable=0;points=[[0,0.5],[1,0.5]];portConstraint=eastwest;" vertex="1" parent="_l82SM2_WNKJ50-7Za2x-112">
          <mxGeometry y="49.6" width="137" height="25" as="geometry" />
        </mxCell>
        <mxCell id="_l82SM2_WNKJ50-7Za2x-115" value="+string make" style="text;strokeColor=none;fillColor=none;align=left;verticalAlign=top;spacingLeft=4;spacingRight=4;overflow=hidden;rotatable=0;points=[[0,0.5],[1,0.5]];portConstraint=eastwest;" vertex="1" parent="_l82SM2_WNKJ50-7Za2x-112">
          <mxGeometry y="74.6" width="137" height="25" as="geometry" />
        </mxCell>
        <mxCell id="_l82SM2_WNKJ50-7Za2x-116" value="+string model" style="text;strokeColor=none;fillColor=none;align=left;verticalAlign=top;spacingLeft=4;spacingRight=4;overflow=hidden;rotatable=0;points=[[0,0.5],[1,0.5]];portConstraint=eastwest;" vertex="1" parent="_l82SM2_WNKJ50-7Za2x-112">
          <mxGeometry y="99.6" width="137" height="25" as="geometry" />
        </mxCell>
        <mxCell id="_l82SM2_WNKJ50-7Za2x-117" value="+int year" style="text;strokeColor=none;fillColor=none;align=left;verticalAlign=top;spacingLeft=4;spacingRight=4;overflow=hidden;rotatable=0;points=[[0,0.5],[1,0.5]];portConstraint=eastwest;" vertex="1" parent="_l82SM2_WNKJ50-7Za2x-112">
          <mxGeometry y="124.6" width="137" height="25" as="geometry" />
        </mxCell>
        <mxCell id="_l82SM2_WNKJ50-7Za2x-118" value="+string vin" style="text;strokeColor=none;fillColor=none;align=left;verticalAlign=top;spacingLeft=4;spacingRight=4;overflow=hidden;rotatable=0;points=[[0,0.5],[1,0.5]];portConstraint=eastwest;" vertex="1" parent="_l82SM2_WNKJ50-7Za2x-112">
          <mxGeometry y="149.6" width="137" height="25" as="geometry" />
        </mxCell>
        <mxCell id="_l82SM2_WNKJ50-7Za2x-119" style="line;strokeWidth=1;fillColor=none;align=left;verticalAlign=middle;spacingTop=-1;spacingLeft=3;spacingRight=3;rotatable=0;labelPosition=right;points=[];portConstraint=eastwest;strokeColor=inherit;" vertex="1" parent="_l82SM2_WNKJ50-7Za2x-112">
          <mxGeometry y="174.6" width="137" height="12" as="geometry" />
        </mxCell>
        <mxCell id="_l82SM2_WNKJ50-7Za2x-120" value="Insurer" style="swimlane;fontStyle=1;align=center;verticalAlign=top;childLayout=stackLayout;horizontal=1;startSize=24.923076923076923;horizontalStack=0;resizeParent=1;resizeParentMax=0;resizeLast=0;collapsible=0;marginBottom=0;" vertex="1" parent="1">
          <mxGeometry x="409" y="282" width="175" height="161.9230769230769" as="geometry" />
        </mxCell>
        <mxCell id="_l82SM2_WNKJ50-7Za2x-121" value="+string insurer_id" style="text;strokeColor=none;fillColor=none;align=left;verticalAlign=top;spacingLeft=4;spacingRight=4;overflow=hidden;rotatable=0;points=[[0,0.5],[1,0.5]];portConstraint=eastwest;" vertex="1" parent="_l82SM2_WNKJ50-7Za2x-120">
          <mxGeometry y="24.923076923076923" width="175" height="25" as="geometry" />
        </mxCell>
        <mxCell id="_l82SM2_WNKJ50-7Za2x-122" value="+string name" style="text;strokeColor=none;fillColor=none;align=left;verticalAlign=top;spacingLeft=4;spacingRight=4;overflow=hidden;rotatable=0;points=[[0,0.5],[1,0.5]];portConstraint=eastwest;" vertex="1" parent="_l82SM2_WNKJ50-7Za2x-120">
          <mxGeometry y="49.92307692307692" width="175" height="25" as="geometry" />
        </mxCell>
        <mxCell id="_l82SM2_WNKJ50-7Za2x-123" value="+string email" style="text;strokeColor=none;fillColor=none;align=left;verticalAlign=top;spacingLeft=4;spacingRight=4;overflow=hidden;rotatable=0;points=[[0,0.5],[1,0.5]];portConstraint=eastwest;" vertex="1" parent="_l82SM2_WNKJ50-7Za2x-120">
          <mxGeometry y="74.92307692307692" width="175" height="25" as="geometry" />
        </mxCell>
        <mxCell id="_l82SM2_WNKJ50-7Za2x-124" value="+string phone_number" style="text;strokeColor=none;fillColor=none;align=left;verticalAlign=top;spacingLeft=4;spacingRight=4;overflow=hidden;rotatable=0;points=[[0,0.5],[1,0.5]];portConstraint=eastwest;" vertex="1" parent="_l82SM2_WNKJ50-7Za2x-120">
          <mxGeometry y="99.92307692307692" width="175" height="25" as="geometry" />
        </mxCell>
        <mxCell id="_l82SM2_WNKJ50-7Za2x-125" value="+string address" style="text;strokeColor=none;fillColor=none;align=left;verticalAlign=top;spacingLeft=4;spacingRight=4;overflow=hidden;rotatable=0;points=[[0,0.5],[1,0.5]];portConstraint=eastwest;" vertex="1" parent="_l82SM2_WNKJ50-7Za2x-120">
          <mxGeometry y="124.92307692307692" width="175" height="25" as="geometry" />
        </mxCell>
        <mxCell id="_l82SM2_WNKJ50-7Za2x-126" style="line;strokeWidth=1;fillColor=none;align=left;verticalAlign=middle;spacingTop=-1;spacingLeft=3;spacingRight=3;rotatable=0;labelPosition=right;points=[];portConstraint=eastwest;strokeColor=inherit;" vertex="1" parent="_l82SM2_WNKJ50-7Za2x-120">
          <mxGeometry y="149.9230769230769" width="175" height="12" as="geometry" />
        </mxCell>
        <mxCell id="_l82SM2_WNKJ50-7Za2x-127" value="Insurance" style="swimlane;fontStyle=1;align=center;verticalAlign=top;childLayout=stackLayout;horizontal=1;startSize=24;horizontalStack=0;resizeParent=1;resizeParentMax=0;resizeLast=0;collapsible=0;marginBottom=0;" vertex="1" parent="1">
          <mxGeometry x="209" y="532" width="164" height="252" as="geometry" />
        </mxCell>
        <mxCell id="_l82SM2_WNKJ50-7Za2x-128" value="+string insurance_id" style="text;strokeColor=none;fillColor=none;align=left;verticalAlign=top;spacingLeft=4;spacingRight=4;overflow=hidden;rotatable=0;points=[[0,0.5],[1,0.5]];portConstraint=eastwest;" vertex="1" parent="_l82SM2_WNKJ50-7Za2x-127">
          <mxGeometry y="24" width="164" height="24" as="geometry" />
        </mxCell>
        <mxCell id="_l82SM2_WNKJ50-7Za2x-129" value="+string client_id" style="text;strokeColor=none;fillColor=none;align=left;verticalAlign=top;spacingLeft=4;spacingRight=4;overflow=hidden;rotatable=0;points=[[0,0.5],[1,0.5]];portConstraint=eastwest;" vertex="1" parent="_l82SM2_WNKJ50-7Za2x-127">
          <mxGeometry y="48" width="164" height="24" as="geometry" />
        </mxCell>
        <mxCell id="_l82SM2_WNKJ50-7Za2x-130" value="+string car_plate" style="text;strokeColor=none;fillColor=none;align=left;verticalAlign=top;spacingLeft=4;spacingRight=4;overflow=hidden;rotatable=0;points=[[0,0.5],[1,0.5]];portConstraint=eastwest;" vertex="1" parent="_l82SM2_WNKJ50-7Za2x-127">
          <mxGeometry y="72" width="164" height="24" as="geometry" />
        </mxCell>
        <mxCell id="_l82SM2_WNKJ50-7Za2x-131" value="+string insurer_id" style="text;strokeColor=none;fillColor=none;align=left;verticalAlign=top;spacingLeft=4;spacingRight=4;overflow=hidden;rotatable=0;points=[[0,0.5],[1,0.5]];portConstraint=eastwest;" vertex="1" parent="_l82SM2_WNKJ50-7Za2x-127">
          <mxGeometry y="96" width="164" height="24" as="geometry" />
        </mxCell>
        <mxCell id="_l82SM2_WNKJ50-7Za2x-132" value="+long policy_number" style="text;strokeColor=none;fillColor=none;align=left;verticalAlign=top;spacingLeft=4;spacingRight=4;overflow=hidden;rotatable=0;points=[[0,0.5],[1,0.5]];portConstraint=eastwest;" vertex="1" parent="_l82SM2_WNKJ50-7Za2x-127">
          <mxGeometry y="120" width="164" height="24" as="geometry" />
        </mxCell>
        <mxCell id="_l82SM2_WNKJ50-7Za2x-133" value="+date start_date" style="text;strokeColor=none;fillColor=none;align=left;verticalAlign=top;spacingLeft=4;spacingRight=4;overflow=hidden;rotatable=0;points=[[0,0.5],[1,0.5]];portConstraint=eastwest;" vertex="1" parent="_l82SM2_WNKJ50-7Za2x-127">
          <mxGeometry y="144" width="164" height="24" as="geometry" />
        </mxCell>
        <mxCell id="_l82SM2_WNKJ50-7Za2x-134" value="+date end_date" style="text;strokeColor=none;fillColor=none;align=left;verticalAlign=top;spacingLeft=4;spacingRight=4;overflow=hidden;rotatable=0;points=[[0,0.5],[1,0.5]];portConstraint=eastwest;" vertex="1" parent="_l82SM2_WNKJ50-7Za2x-127">
          <mxGeometry y="168" width="164" height="24" as="geometry" />
        </mxCell>
        <mxCell id="_l82SM2_WNKJ50-7Za2x-135" value="+int amount" style="text;strokeColor=none;fillColor=none;align=left;verticalAlign=top;spacingLeft=4;spacingRight=4;overflow=hidden;rotatable=0;points=[[0,0.5],[1,0.5]];portConstraint=eastwest;" vertex="1" parent="_l82SM2_WNKJ50-7Za2x-127">
          <mxGeometry y="192" width="164" height="24" as="geometry" />
        </mxCell>
        <mxCell id="_l82SM2_WNKJ50-7Za2x-136" value="+string details" style="text;strokeColor=none;fillColor=none;align=left;verticalAlign=top;spacingLeft=4;spacingRight=4;overflow=hidden;rotatable=0;points=[[0,0.5],[1,0.5]];portConstraint=eastwest;" vertex="1" parent="_l82SM2_WNKJ50-7Za2x-127">
          <mxGeometry y="216" width="164" height="24" as="geometry" />
        </mxCell>
        <mxCell id="_l82SM2_WNKJ50-7Za2x-137" style="line;strokeWidth=1;fillColor=none;align=left;verticalAlign=middle;spacingTop=-1;spacingLeft=3;spacingRight=3;rotatable=0;labelPosition=right;points=[];portConstraint=eastwest;strokeColor=inherit;" vertex="1" parent="_l82SM2_WNKJ50-7Za2x-127">
          <mxGeometry y="240" width="164" height="12" as="geometry" />
        </mxCell>
        <mxCell id="_l82SM2_WNKJ50-7Za2x-138" value="Payment" style="swimlane;fontStyle=1;align=center;verticalAlign=top;childLayout=stackLayout;horizontal=1;startSize=24.923076923076923;horizontalStack=0;resizeParent=1;resizeParentMax=0;resizeLast=0;collapsible=0;marginBottom=0;" vertex="1" parent="1">
          <mxGeometry x="195" y="861" width="193" height="161.9230769230769" as="geometry" />
        </mxCell>
        <mxCell id="_l82SM2_WNKJ50-7Za2x-139" value="+string payment_id" style="text;strokeColor=none;fillColor=none;align=left;verticalAlign=top;spacingLeft=4;spacingRight=4;overflow=hidden;rotatable=0;points=[[0,0.5],[1,0.5]];portConstraint=eastwest;" vertex="1" parent="_l82SM2_WNKJ50-7Za2x-138">
          <mxGeometry y="24.923076923076923" width="193" height="25" as="geometry" />
        </mxCell>
        <mxCell id="_l82SM2_WNKJ50-7Za2x-140" value="+string insurance_id" style="text;strokeColor=none;fillColor=none;align=left;verticalAlign=top;spacingLeft=4;spacingRight=4;overflow=hidden;rotatable=0;points=[[0,0.5],[1,0.5]];portConstraint=eastwest;" vertex="1" parent="_l82SM2_WNKJ50-7Za2x-138">
          <mxGeometry y="49.92307692307692" width="193" height="25" as="geometry" />
        </mxCell>
        <mxCell id="_l82SM2_WNKJ50-7Za2x-141" value="+date payment_date" style="text;strokeColor=none;fillColor=none;align=left;verticalAlign=top;spacingLeft=4;spacingRight=4;overflow=hidden;rotatable=0;points=[[0,0.5],[1,0.5]];portConstraint=eastwest;" vertex="1" parent="_l82SM2_WNKJ50-7Za2x-138">
          <mxGeometry y="74.92307692307692" width="193" height="25" as="geometry" />
        </mxCell>
        <mxCell id="_l82SM2_WNKJ50-7Za2x-142" value="+int amount" style="text;strokeColor=none;fillColor=none;align=left;verticalAlign=top;spacingLeft=4;spacingRight=4;overflow=hidden;rotatable=0;points=[[0,0.5],[1,0.5]];portConstraint=eastwest;" vertex="1" parent="_l82SM2_WNKJ50-7Za2x-138">
          <mxGeometry y="99.92307692307692" width="193" height="25" as="geometry" />
        </mxCell>
        <mxCell id="_l82SM2_WNKJ50-7Za2x-143" value="+enum payment_method" style="text;strokeColor=none;fillColor=none;align=left;verticalAlign=top;spacingLeft=4;spacingRight=4;overflow=hidden;rotatable=0;points=[[0,0.5],[1,0.5]];portConstraint=eastwest;" vertex="1" parent="_l82SM2_WNKJ50-7Za2x-138">
          <mxGeometry y="124.92307692307692" width="193" height="25" as="geometry" />
        </mxCell>
        <mxCell id="_l82SM2_WNKJ50-7Za2x-144" style="line;strokeWidth=1;fillColor=none;align=left;verticalAlign=middle;spacingTop=-1;spacingLeft=3;spacingRight=3;rotatable=0;labelPosition=right;points=[];portConstraint=eastwest;strokeColor=inherit;" vertex="1" parent="_l82SM2_WNKJ50-7Za2x-138">
          <mxGeometry y="149.9230769230769" width="193" height="12" as="geometry" />
        </mxCell>
        <mxCell id="_l82SM2_WNKJ50-7Za2x-145" value="owns" style="curved=1;startArrow=none;endArrow=open;endSize=12;exitX=0.75;exitY=1;entryX=0.5;entryY=0;rounded=0;" edge="1" parent="1" source="_l82SM2_WNKJ50-7Za2x-104" target="_l82SM2_WNKJ50-7Za2x-112">
          <mxGeometry relative="1" as="geometry">
            <Array as="points">
              <mxPoint x="291" y="237" />
            </Array>
          </mxGeometry>
        </mxCell>
        <mxCell id="_l82SM2_WNKJ50-7Za2x-146" value="1" style="edgeLabel;resizable=0;labelBackgroundColor=none;fontSize=12;align=right;verticalAlign=top;" vertex="1" parent="_l82SM2_WNKJ50-7Za2x-145">
          <mxGeometry x="-1" relative="1" as="geometry" />
        </mxCell>
        <mxCell id="_l82SM2_WNKJ50-7Za2x-147" value="0..*" style="edgeLabel;resizable=0;labelBackgroundColor=none;fontSize=12;align=left;verticalAlign=bottom;" vertex="1" parent="_l82SM2_WNKJ50-7Za2x-145">
          <mxGeometry x="1" relative="1" as="geometry" />
        </mxCell>
        <mxCell id="_l82SM2_WNKJ50-7Za2x-148" value="has" style="curved=1;startArrow=none;endArrow=open;endSize=12;exitX=0.25;exitY=1;entryX=0;entryY=0.05;rounded=0;" edge="1" parent="1" source="_l82SM2_WNKJ50-7Za2x-104" target="_l82SM2_WNKJ50-7Za2x-127">
          <mxGeometry relative="1" as="geometry">
            <Array as="points">
              <mxPoint x="176" y="237" />
              <mxPoint x="176" y="498" />
            </Array>
          </mxGeometry>
        </mxCell>
        <mxCell id="_l82SM2_WNKJ50-7Za2x-149" value="1" style="edgeLabel;resizable=0;labelBackgroundColor=none;fontSize=12;align=right;verticalAlign=top;" vertex="1" parent="_l82SM2_WNKJ50-7Za2x-148">
          <mxGeometry x="-1" relative="1" as="geometry" />
        </mxCell>
        <mxCell id="_l82SM2_WNKJ50-7Za2x-150" value="0..*" style="edgeLabel;resizable=0;labelBackgroundColor=none;fontSize=12;align=left;verticalAlign=bottom;" vertex="1" parent="_l82SM2_WNKJ50-7Za2x-148">
          <mxGeometry x="1" relative="1" as="geometry" />
        </mxCell>
        <mxCell id="_l82SM2_WNKJ50-7Za2x-151" value="insures" style="curved=1;startArrow=none;endArrow=open;endSize=12;exitX=0.5;exitY=1;entryX=0.5;entryY=0;rounded=0;" edge="1" parent="1" source="_l82SM2_WNKJ50-7Za2x-112" target="_l82SM2_WNKJ50-7Za2x-127">
          <mxGeometry relative="1" as="geometry">
            <Array as="points" />
          </mxGeometry>
        </mxCell>
        <mxCell id="_l82SM2_WNKJ50-7Za2x-152" value="1" style="edgeLabel;resizable=0;labelBackgroundColor=none;fontSize=12;align=right;verticalAlign=top;" vertex="1" parent="_l82SM2_WNKJ50-7Za2x-151">
          <mxGeometry x="-1" relative="1" as="geometry" />
        </mxCell>
        <mxCell id="_l82SM2_WNKJ50-7Za2x-153" value="0..*" style="edgeLabel;resizable=0;labelBackgroundColor=none;fontSize=12;align=left;verticalAlign=bottom;" vertex="1" parent="_l82SM2_WNKJ50-7Za2x-151">
          <mxGeometry x="1" relative="1" as="geometry" />
        </mxCell>
        <mxCell id="_l82SM2_WNKJ50-7Za2x-154" value="issues" style="curved=1;startArrow=none;endArrow=open;endSize=12;exitX=0.5;exitY=1;entryX=1;entryY=0.25;rounded=0;" edge="1" parent="1" source="_l82SM2_WNKJ50-7Za2x-120" target="_l82SM2_WNKJ50-7Za2x-127">
          <mxGeometry relative="1" as="geometry">
            <Array as="points">
              <mxPoint x="497" y="498" />
            </Array>
          </mxGeometry>
        </mxCell>
        <mxCell id="_l82SM2_WNKJ50-7Za2x-155" value="1" style="edgeLabel;resizable=0;labelBackgroundColor=none;fontSize=12;align=right;verticalAlign=top;" vertex="1" parent="_l82SM2_WNKJ50-7Za2x-154">
          <mxGeometry x="-1" relative="1" as="geometry" />
        </mxCell>
        <mxCell id="_l82SM2_WNKJ50-7Za2x-156" value="0..*" style="edgeLabel;resizable=0;labelBackgroundColor=none;fontSize=12;align=left;verticalAlign=bottom;" vertex="1" parent="_l82SM2_WNKJ50-7Za2x-154">
          <mxGeometry x="1" relative="1" as="geometry" />
        </mxCell>
        <mxCell id="_l82SM2_WNKJ50-7Za2x-157" value="receives" style="curved=1;startArrow=none;endArrow=open;endSize=12;exitX=0.5;exitY=1;entryX=0.5;entryY=0;rounded=0;" edge="1" parent="1" source="_l82SM2_WNKJ50-7Za2x-127" target="_l82SM2_WNKJ50-7Za2x-138">
          <mxGeometry relative="1" as="geometry">
            <Array as="points" />
          </mxGeometry>
        </mxCell>
        <mxCell id="_l82SM2_WNKJ50-7Za2x-158" value="1" style="edgeLabel;resizable=0;labelBackgroundColor=none;fontSize=12;align=right;verticalAlign=top;" vertex="1" parent="_l82SM2_WNKJ50-7Za2x-157">
          <mxGeometry x="-1" relative="1" as="geometry" />
        </mxCell>
        <mxCell id="_l82SM2_WNKJ50-7Za2x-159" value="0..*" style="edgeLabel;resizable=0;labelBackgroundColor=none;fontSize=12;align=left;verticalAlign=bottom;" vertex="1" parent="_l82SM2_WNKJ50-7Za2x-157">
          <mxGeometry x="1" relative="1" as="geometry" />
        </mxCell>
      </root>
    </mxGraphModel>
  </diagram>
</mxfile>
